<svg width="23" height="23" viewBox="0 0 23 23" fill="none" xmlns="http://www.w3.org/2000/svg">
<path d="M16.7731 14.3194H6.34491L3.27778 1.4375H1.4375M3.8912 3.8912H18.6134L16.7731 11.8657H5.73148L3.8912 3.8912Z" stroke="#222222" stroke-linecap="round" stroke-linejoin="round"/>
<path d="M15.5462 17.9996C16.2238 17.9996 16.773 17.4503 16.773 16.7728C16.773 16.0952 16.2238 15.5459 15.5462 15.5459C14.8686 15.5459 14.3193 16.0952 14.3193 16.7728C14.3193 17.4503 14.8686 17.9996 15.5462 17.9996Z" stroke="#222222" stroke-linecap="round" stroke-linejoin="round"/>
<path d="M7.57158 17.9996C8.24915 17.9996 8.79843 17.4503 8.79843 16.7728C8.79843 16.0952 8.24915 15.5459 7.57158 15.5459C6.89401 15.5459 6.34473 16.0952 6.34473 16.7728C6.34473 17.4503 6.89401 17.9996 7.57158 17.9996Z" stroke="#222222" stroke-linecap="round" stroke-linejoin="round"/>
</svg>
