<svg width="18" height="18" viewBox="0 0 18 18" fill="none" xmlns="http://www.w3.org/2000/svg">
<g clip-path="url(#clip0)">
<path d="M17.4196 0.0044478L10.8798 0.631047C10.433 0.674323 10.2408 1.21881 10.5559 1.53315L11.5824 2.55958L8.68036 5.46123C8.47373 5.66821 8.47373 6.00378 8.68036 6.21076L11.7915 9.32185C11.9977 9.52809 12.3338 9.52914 12.541 9.32185L15.4427 6.41985L16.4691 7.44628C16.7835 7.76146 17.328 7.56903 17.3712 7.12236L17.9978 0.582666C18.0291 0.249841 17.7498 -0.0273839 17.4196 0.0044478ZM16.4235 5.90244L15.8174 5.29595C15.6104 5.08897 15.2748 5.08897 15.0679 5.29595L12.1662 8.19795L9.80426 5.83599L12.7063 2.93434C12.9129 2.72736 12.9129 2.39179 12.7063 2.18482L12.0998 1.57871L16.8816 1.1206L16.4235 5.90244Z" fill="white"/>
<path d="M13.8894 10.7719C13.4181 10.3005 12.6653 10.317 12.2155 10.7669C11.6964 11.2859 10.521 12.4609 10.5207 12.4613L5.54308 7.48329C5.79495 7.23167 6.11369 6.91335 7.2321 5.79424C7.69546 5.33155 7.69729 4.57978 7.23235 4.11476C4.28182 1.16427 4.46429 1.34565 4.43123 1.31554C3.96343 0.889583 3.25229 0.896766 2.75527 1.39386C2.74837 1.40072 1.87289 2.27257 1.86852 2.28127C-1.80213 5.90167 0.464372 10.2439 4.11227 13.8918C7.57116 17.3514 11.7431 19.6915 15.3873 16.4561C15.6117 16.2568 16.6717 15.1917 16.7292 15.1221C16.73 15.121 16.7309 15.12 16.7318 15.1189C17.1161 14.6452 17.0804 13.9626 16.6489 13.531L13.8894 10.7719ZM3.50219 2.14081C3.573 2.07 3.65476 2.03102 3.72614 2.10253L6.48536 4.86172C6.53758 4.91394 6.53518 4.99728 6.48525 5.04718C6.2363 5.29631 6.06852 5.46416 5.93647 5.59624L2.99077 2.6505C3.2032 2.43814 3.40377 2.23923 3.50219 2.14081ZM4.85926 13.1449C1.9311 10.2167 -0.452868 6.53725 2.2572 3.41084L5.18959 6.34323C4.99194 6.5407 5.23825 6.2946 4.71342 6.81902C4.34464 7.18776 4.34774 7.78267 4.71342 8.14753L9.85632 13.2908C10.2227 13.6572 10.8188 13.6572 11.1853 13.2906C11.4365 13.0393 11.578 12.8976 11.661 12.8147L14.5934 15.747C11.4772 18.4488 7.80581 16.0921 4.85926 13.1449ZM15.9059 14.4569C15.7581 14.6085 15.5018 14.8655 15.3538 15.0135L12.4083 12.068L12.9625 11.5138C13.0046 11.4717 13.0898 11.4661 13.1425 11.5188L15.9021 14.278C15.9493 14.3253 15.9565 14.4048 15.9059 14.4569Z" fill="white"/>
</g>
<defs>
<clipPath id="clip0">
<rect width="18" height="18" fill="white"/>
</clipPath>
</defs>
</svg>
