<svg width="21" height="22" viewBox="0 0 21 22" fill="none" xmlns="http://www.w3.org/2000/svg">
<path d="M3.07617 21.4824H9.92578V14.0176H7.46484V11.5566H9.92578V8.48047C9.92578 6.78425 11.3057 5.4043 13.002 5.4043H16.0781V7.86523H13.6172C12.9387 7.86523 12.3867 8.41718 12.3867 9.0957V11.5566H15.9671L15.5569 14.0176H12.3867V21.4824H17.9238C19.62 21.4824 21 20.1025 21 18.4062V3.55859C21 1.86237 19.62 0.482422 17.9238 0.482422H3.07617C1.37995 0.482422 0 1.86237 0 3.55859V18.4062C0 20.1025 1.37995 21.4824 3.07617 21.4824ZM1.23047 3.55859C1.23047 2.54089 2.05847 1.71289 3.07617 1.71289H17.9238C18.9415 1.71289 19.7695 2.54089 19.7695 3.55859V18.4062C19.7695 19.424 18.9415 20.252 17.9238 20.252H13.6172V15.248H16.5993L17.4196 10.3262H13.6172V9.0957H17.3086V4.17383H13.002C10.6272 4.17383 8.69531 6.10573 8.69531 8.48047V10.3262H6.23438V15.248H8.69531V20.252H3.07617C2.05847 20.252 1.23047 19.424 1.23047 18.4062V3.55859Z" fill="white"/>
</svg>
