<svg width="22" height="22" viewBox="0 0 22 22" fill="none" xmlns="http://www.w3.org/2000/svg">
<path d="M15.7316 0H5.99598C2.6898 0 0 2.68992 0 5.9961V15.7318C0 19.0381 2.6898 21.7279 5.99598 21.7279H15.7316C19.0381 21.7279 21.7279 19.0379 21.7279 15.7318V5.9961C21.728 2.68992 19.0381 0 15.7316 0ZM19.8002 15.7318C19.8002 17.9751 17.9751 19.8001 15.7318 19.8001H5.99598C3.75279 19.8002 1.9278 17.9751 1.9278 15.7318V5.9961C1.9278 3.75291 3.75279 1.9278 5.99598 1.9278H15.7316C17.9749 1.9278 19.8001 3.75291 19.8001 5.9961V15.7318H19.8002Z" fill="white"/>
<path d="M10.8639 5.2655C7.77668 5.2655 5.26514 7.77704 5.26514 10.8642C5.26514 13.9513 7.77668 16.4627 10.8639 16.4627C13.951 16.4627 16.4626 13.9513 16.4626 10.8642C16.4626 7.77704 13.951 5.2655 10.8639 5.2655ZM10.8639 14.5348C8.83979 14.5348 7.19294 12.8882 7.19294 10.8641C7.19294 8.8399 8.83967 7.19318 10.8639 7.19318C12.888 7.19318 14.5348 8.8399 14.5348 10.8641C14.5348 12.8882 12.8879 14.5348 10.8639 14.5348Z" fill="white"/>
<path d="M16.6974 3.63086C16.326 3.63086 15.9611 3.78123 15.6988 4.04469C15.4352 4.30688 15.2837 4.67187 15.2837 5.04458C15.2837 5.41613 15.4353 5.781 15.6988 6.04447C15.961 6.30665 16.326 6.4583 16.6974 6.4583C17.0701 6.4583 17.4338 6.30665 17.6973 6.04447C17.9608 5.781 18.1111 5.416 18.1111 5.04458C18.1111 4.67187 17.9608 4.30688 17.6973 4.04469C17.4351 3.78123 17.0701 3.63086 16.6974 3.63086Z" fill="white"/>
</svg>
