<svg width="18" height="18" viewBox="0 0 18 18" fill="none" xmlns="http://www.w3.org/2000/svg">
<path d="M14.574 12.4849C14.5026 12.4849 14.4312 12.4588 14.3755 12.4059L11.0358 9.27283C10.9191 9.16371 10.9133 8.97972 11.023 8.86305C11.1327 8.74523 11.3155 8.74 11.4333 8.85028L14.7731 11.9834C14.8897 12.0925 14.8955 12.2765 14.7858 12.3932C14.7284 12.4541 14.6518 12.4849 14.574 12.4849Z" fill="white"/>
<path d="M3.42575 12.4853C3.34856 12.4853 3.27136 12.4546 3.2139 12.3936C3.1042 12.2769 3.11 12.093 3.22667 11.9838L6.56757 8.85072C6.68481 8.7416 6.86881 8.74625 6.97792 8.86349C7.08762 8.98016 7.08182 9.16415 6.96516 9.27327L3.62426 12.4064C3.56854 12.4592 3.49714 12.4853 3.42575 12.4853Z" fill="white"/>
<path d="M16.5489 15.398H1.45105C0.651232 15.398 0 14.7473 0 13.9469V4.05249C0 3.25209 0.651232 2.60144 1.45105 2.60144H16.5489C17.3488 2.60144 18 3.25209 18 4.05249V13.9469C18 14.7473 17.3488 15.398 16.5489 15.398ZM1.45105 3.18186C0.971043 3.18186 0.58042 3.57248 0.58042 4.05249V13.9469C0.58042 14.4269 0.971043 14.8176 1.45105 14.8176H16.5489C17.029 14.8176 17.4196 14.4269 17.4196 13.9469V4.05249C17.4196 3.57248 17.029 3.18186 16.5489 3.18186H1.45105Z" fill="white"/>
<path d="M9.00017 10.4579C8.61419 10.4579 8.22821 10.3297 7.93452 10.0737L0.481918 3.57241C0.36119 3.46736 0.348421 3.28394 0.453477 3.16264C0.559694 3.04191 0.742526 3.03088 0.863254 3.13478L8.31585 9.63549C8.68674 9.95878 9.3136 9.95878 9.6839 9.63549L17.1272 3.14522C17.2474 3.04017 17.4302 3.05178 17.537 3.17308C17.642 3.29439 17.6299 3.47723 17.5091 3.58286L10.0658 10.0731C9.77155 10.3297 9.38615 10.4579 9.00017 10.4579Z" fill="white"/>
</svg>
