<svg width="22" height="20" viewBox="0 0 22 20" fill="none" xmlns="http://www.w3.org/2000/svg">
<path d="M0.383779 9.89887L5.39032 11.7675L7.32816 17.9995C7.45215 18.3987 7.94023 18.5462 8.26419 18.2813L11.0549 16.0063C11.3475 15.7679 11.7641 15.7561 12.0698 15.978L17.1033 19.6324C17.4499 19.8843 17.9409 19.6944 18.0278 19.2756L21.7151 1.53907C21.8099 1.08162 21.3605 0.70001 20.9249 0.868473L0.377912 8.79488C-0.129144 8.99043 -0.124726 9.70832 0.383779 9.89887ZM7.01585 10.7728L16.8005 4.74639C16.9764 4.63841 17.1573 4.87618 17.0063 5.01625L8.9311 12.5225C8.64726 12.7867 8.46416 13.1403 8.41231 13.5241L8.13723 15.5626C8.1008 15.8348 7.71846 15.8618 7.64336 15.5984L6.58543 11.8811C6.46426 11.4571 6.64083 11.0042 7.01585 10.7728Z" fill="white"/>
</svg>
