<svg width="27" height="17" viewBox="0 0 27 17" fill="none" xmlns="http://www.w3.org/2000/svg">
<path d="M24.0858 11.0931L24.0712 11.0795C23.8407 10.8671 23.1345 10.1813 22.8964 9.88151C22.6169 9.50754 22.6813 9.26247 22.8908 8.89529C23.1555 8.43127 23.686 7.71951 24.2473 6.96582C26.0452 4.55259 27.206 2.88195 26.967 1.69528L26.8383 1.06144L20.1985 1.06432C20.1752 1.12682 19.8287 2.64594 18.3666 5.23268C17.3064 7.10829 16.6109 7.69751 16.366 7.80154L16.3281 7.79003C16.2484 7.69176 16.1091 7.42654 16.0518 6.74295C15.9921 6.02688 16.0451 5.1599 16.0963 4.3215C16.1563 3.33837 16.208 2.48927 16.0842 1.88175L15.8825 0.892038C15.6388 0.853181 14.7467 0.509638 12.2609 0.483528C10.1089 0.46153 9.47674 0.771767 9.16631 1.0452L8.13943 1.9496L9.43739 2.38545C9.93137 2.55136 10.0953 2.74277 10.2299 3.69157C10.3176 4.30999 10.3635 5.34925 10.2688 6.27708C10.1326 7.60746 9.80612 7.855 9.78923 7.86815C9.73299 7.84903 9.25612 7.64077 8.42823 5.89386C7.85392 4.68231 7.35047 3.24914 6.98257 2.20268C6.56152 1.00429 6.63732 1.25943 6.42371 0.693231L0 0.693025L0.415695 1.76621C2.14872 6.2446 3.73878 9.74191 5.8667 12.2538C8.2177 15.0291 11.1395 16.4822 15.0752 16.4822H15.8662V15.6927C15.8662 14.9547 15.9274 14.4232 16.0586 14.0203C16.1388 13.7748 16.2453 13.5719 16.3571 13.3591C16.5232 13.0458 16.6855 12.9115 16.7741 12.8916C16.8544 12.8733 16.9957 12.9321 17.1523 13.0486C17.6017 13.3831 17.9585 13.8227 18.3363 14.2881C18.8814 14.9598 19.445 15.6541 20.3392 16.1087C20.8278 16.357 21.7235 16.4824 22.2164 16.4824C22.3468 16.4824 26.9942 16.4822 27 16.4822L26.966 15.6603C26.9153 14.4312 25.9461 12.8944 24.0858 11.0931ZM22.2471 14.9033H22.2343C21.8944 14.9088 21.2458 14.7976 21.0571 14.7018C20.4626 14.3996 20.0471 13.8875 19.5657 13.2945C19.1432 12.7738 18.7063 12.2353 18.098 11.7828C17.6061 11.4167 17.1593 11.3095 16.8046 11.3095C16.6628 11.3095 16.5355 11.3266 16.4263 11.3513C16.0146 11.4438 15.4256 11.7394 14.9574 12.6233C14.8254 12.8747 14.6756 13.1595 14.5543 13.532C14.4272 13.9218 14.3481 14.355 14.3104 14.8819C11.3445 14.7137 9.03014 13.5427 7.07485 11.2345C5.25696 9.08834 3.82674 6.0865 2.31207 2.27135C2.42166 2.27135 5.16776 2.27176 5.32988 2.27176C5.37952 2.41094 5.43308 2.56349 5.48994 2.72509C5.88647 3.85399 6.42968 5.39983 7.0697 6.71808C7.98617 8.60581 8.82312 9.44771 9.78326 9.44771C10.2626 9.44771 10.6925 9.245 11.0264 8.86116C11.5025 8.31408 11.7789 7.41113 11.8716 6.10048C11.9447 5.06698 11.8768 4.03758 11.7964 3.47036C11.7301 3.00366 11.6356 2.51374 11.4048 2.0748C12.388 2.0306 13.7046 2.1005 14.5386 2.21995C14.6144 2.63195 14.565 3.44178 14.5172 4.22529C14.4016 6.11796 14.2824 8.07107 15.2862 8.98493C15.4627 9.1457 15.65 9.23184 15.6553 9.23533L16.1662 9.39179C16.3633 9.33114 17.5051 9.90926 19.6672 6.14345C20.36 4.93684 21.005 3.54642 21.3523 2.63833C22.1577 2.63668 24.9017 2.63977 25.2241 2.64018C24.7674 3.64326 23.6852 5.07397 22.9778 6.02359C22.361 6.8513 21.8285 7.56614 21.516 8.11384C20.9355 9.13131 21.0332 10.0382 21.6378 10.8381L21.6473 10.8505C21.9847 11.2791 22.8179 12.0727 22.9907 12.2326C24.2428 13.4458 24.8461 14.3173 25.1333 14.9031H22.2471V14.9033Z" fill="white"/>
</svg>
