<svg width="22" height="22" viewBox="0 0 22 22" fill="none" xmlns="http://www.w3.org/2000/svg">
<path d="M21.7279 10.5841C21.7279 16.4296 16.9528 21.1682 11.0614 21.1682C9.19113 21.1682 7.43407 20.6902 5.90539 19.8513L0 21.7279L1.92533 16.0492C0.954094 14.4543 0.394723 12.5838 0.394723 10.5841C0.394723 4.7386 5.17026 0 11.0614 0C16.9533 0 21.7279 4.7386 21.7279 10.5841ZM11.0614 1.6856C6.11615 1.6856 2.0936 5.67749 2.0936 10.5841C2.0936 12.5312 2.72829 14.3344 3.80189 15.8012L2.68146 19.106L6.12774 18.0107C7.54367 18.9404 9.23989 19.4826 11.0617 19.4826C16.0062 19.4826 20.0295 15.4912 20.0295 10.5846C20.0295 5.67797 16.0064 1.6856 11.0614 1.6856ZM16.4477 13.0217C16.3818 12.9138 16.2078 12.8486 15.9466 12.719C15.6849 12.5894 14.3991 11.9614 14.16 11.8752C13.9203 11.7888 13.7455 11.7454 13.5715 12.0049C13.3974 12.2647 12.8962 12.8486 12.7434 13.0217C12.5908 13.1953 12.4385 13.2171 12.1768 13.0872C11.9156 12.9575 11.0732 12.6833 10.0745 11.7997C9.29735 11.1121 8.7725 10.2633 8.61992 10.0033C8.46759 9.74374 8.60399 9.60347 8.7346 9.47431C8.85241 9.35795 8.9963 9.17133 9.12691 9.01996C9.258 8.86835 9.30146 8.76043 9.38813 8.58709C9.47576 8.41399 9.43206 8.26262 9.3664 8.1325C9.30121 8.00285 8.77781 6.72622 8.56005 6.20668C8.34229 5.68763 8.12477 5.77406 7.97195 5.77406C7.81961 5.77406 7.64507 5.75233 7.47076 5.75233C7.29646 5.75233 7.01303 5.81727 6.7733 6.0768C6.53381 6.33657 5.85856 6.96426 5.85856 8.24065C5.85856 9.51729 6.79503 10.7507 6.92612 10.9236C7.05673 11.0964 8.73436 13.8013 11.3924 14.8401C14.0507 15.8785 14.0507 15.532 14.5301 15.4886C15.0091 15.4454 16.0767 14.8611 16.2954 14.2556C16.5127 13.6492 16.5127 13.1299 16.4477 13.0217Z" fill="white"/>
</svg>
