<svg width="26" height="22" viewBox="0 0 26 22" fill="none" xmlns="http://www.w3.org/2000/svg">
<path d="M21.0973 21.2684H4.64156C3.8694 21.2684 3.22982 20.6889 3.15339 19.9207L2.07392 9.10333C2.063 8.99335 2.09887 8.88416 2.17297 8.80304C2.24707 8.72114 2.35158 8.67435 2.46234 8.67435H23.2781C23.388 8.67435 23.4933 8.72114 23.5674 8.80304C23.6415 8.88416 23.6774 8.99413 23.6665 9.10333L22.5878 19.9207C22.5098 20.6889 21.8694 21.2684 21.0973 21.2684ZM2.8921 9.45509L3.92867 19.8435C3.96533 20.2116 4.27108 20.4885 4.64078 20.4885H21.0973C21.467 20.4885 21.7735 20.2116 21.8102 19.8435L22.8467 9.45509H2.8921Z" fill="black"/>
<path d="M5.93085 4.86749C5.81931 4.86749 5.70856 4.81991 5.63212 4.72787C5.49251 4.5633 5.51435 4.31683 5.6797 4.17878L10.5514 0.0917561C10.7175 -0.0462978 10.9632 -0.0252387 11.1005 0.140114C11.2393 0.304687 11.2175 0.551156 11.0521 0.68921L6.18044 4.77623C6.1079 4.83707 6.01898 4.86749 5.93085 4.86749Z" fill="black"/>
<path d="M19.8088 4.86734C19.7206 4.86734 19.6317 4.83692 19.5584 4.77608L14.6859 0.689063C14.5214 0.550229 14.4995 0.30454 14.6376 0.139187C14.7772 -0.0253857 15.0221 -0.0472246 15.1875 0.0908293L20.0599 4.17785C20.2245 4.31668 20.2463 4.56237 20.1083 4.72772C20.031 4.81976 19.9203 4.86734 19.8088 4.86734Z" fill="black"/>
<path d="M24.3934 9.45511H1.34544C0.603693 9.45511 0 8.85141 0 8.10967V5.61534C0 4.87359 0.603693 4.2699 1.34544 4.2699H24.3934C25.1352 4.2699 25.7389 4.87359 25.7389 5.61534V8.10967C25.7389 8.85141 25.1359 9.45511 24.3934 9.45511ZM1.34544 5.04908C1.03345 5.04908 0.779965 5.30257 0.779965 5.61456V8.10889C0.779965 8.42087 1.03345 8.67436 1.34544 8.67436H24.3934C24.7046 8.67436 24.9589 8.42087 24.9589 8.10889V5.61456C24.9589 5.30257 24.7054 5.04908 24.3934 5.04908H1.34544Z" fill="black"/>
<path d="M7.2186 18.0815C7.00333 18.0815 6.82861 17.9068 6.82861 17.6916V12.0368C6.82861 11.8215 7.00333 11.6468 7.2186 11.6468C7.43387 11.6468 7.60858 11.8215 7.60858 12.0368V17.6916C7.60858 17.9076 7.43465 18.0815 7.2186 18.0815Z" fill="black"/>
<path d="M10.9858 18.0815C10.7705 18.0815 10.5958 17.9068 10.5958 17.6916V12.0368C10.5958 11.8215 10.7705 11.6468 10.9858 11.6468C11.2011 11.6468 11.3758 11.8215 11.3758 12.0368V17.6916C11.3758 17.9076 11.2019 18.0815 10.9858 18.0815Z" fill="black"/>
<path d="M14.753 18.0815C14.5377 18.0815 14.363 17.9068 14.363 17.6916V12.0368C14.363 11.8215 14.5377 11.6468 14.753 11.6468C14.9683 11.6468 15.143 11.8215 15.143 12.0368V17.6916C15.143 17.9076 14.9683 18.0815 14.753 18.0815Z" fill="black"/>
<path d="M18.5203 18.0815C18.305 18.0815 18.1303 17.9068 18.1303 17.6916V12.0368C18.1303 11.8215 18.305 11.6468 18.5203 11.6468C18.7356 11.6468 18.9103 11.8215 18.9103 12.0368V17.6916C18.9103 17.9076 18.7356 18.0815 18.5203 18.0815Z" fill="black"/>
</svg>
