<svg width="26" height="26" viewBox="0 0 26 26" fill="none" xmlns="http://www.w3.org/2000/svg">
<path fill-rule="evenodd" clip-rule="evenodd" d="M21.5332 5.08585C21.533 5.0803 21.5328 5.07474 21.5324 5.06919C21.5308 5.04717 21.5286 5.02555 21.5243 5.00413C21.5199 4.9827 21.5138 4.96128 21.5068 4.94065C21.505 4.93549 21.5032 4.93033 21.5013 4.92518C21.4939 4.90554 21.4856 4.8863 21.4761 4.86765L21.4745 4.86468C21.4642 4.84524 21.4523 4.82679 21.4394 4.80874C21.4362 4.80417 21.4328 4.79981 21.4295 4.79525C21.4158 4.7774 21.4015 4.76014 21.3854 4.74407L16.7901 0.148773C16.7741 0.132705 16.7568 0.118423 16.7389 0.104736C16.7344 0.101364 16.7298 0.0977934 16.7253 0.0946195C16.7072 0.0817259 16.689 0.0698241 16.6697 0.0597075L16.6657 0.0577239C16.6475 0.0482024 16.6285 0.0400695 16.6092 0.03273C16.6039 0.0307464 16.5987 0.0289611 16.5931 0.0271758C16.5725 0.0202331 16.5517 0.0140838 16.5301 0.00971982C16.5088 0.00555419 16.4868 0.00317382 16.465 0.00158691C16.4594 0.00138855 16.4539 0.000991817 16.4483 0.000793455C16.4426 0.000595094 16.4368 0 16.4311 0H4.92578C4.64529 0 4.41797 0.227325 4.41797 0.507811V22.2433C4.41797 22.5238 4.64529 22.7511 4.92578 22.7511H12.5711V25.4921C12.5711 25.6768 12.6715 25.847 12.8332 25.9365C12.995 26.0259 13.1924 26.0206 13.3489 25.9224L15.283 24.709L17.217 25.9224C17.2993 25.974 17.3931 25.9999 17.487 25.9999C17.5715 25.9999 17.6562 25.9789 17.7327 25.9367C17.8944 25.8472 17.9948 25.677 17.9948 25.4921V22.7511H21.0262C21.3067 22.7511 21.534 22.5238 21.534 22.2433V5.10311C21.534 5.09736 21.5334 5.0916 21.5332 5.08585ZM16.9389 1.7339L19.8003 4.5953H16.9389V1.7339ZM12.3206 15.6848C12.2849 15.5878 12.2268 15.4293 12.2254 15.3645C12.265 15.3153 12.4027 15.2282 12.487 15.175C12.6679 15.0608 12.873 14.931 13.0218 14.7283C13.172 14.5234 13.2331 14.2868 13.287 14.0781C13.3106 13.9868 13.3487 13.8394 13.3812 13.7837C13.3991 13.7799 13.4366 13.7746 13.507 13.7746C13.5635 13.7746 13.6268 13.7778 13.6939 13.7811C13.7708 13.7849 13.8502 13.7889 13.9331 13.7889C14.116 13.7889 14.2636 13.7682 14.3975 13.7236C14.6313 13.6458 14.8184 13.4953 14.9834 13.3624C15.0747 13.289 15.2274 13.166 15.2806 13.1585C15.3387 13.166 15.4912 13.289 15.5825 13.3624C15.7475 13.4953 15.9348 13.6458 16.1686 13.7236C16.3025 13.7682 16.4499 13.7889 16.633 13.7889C16.7157 13.7889 16.7953 13.7849 16.872 13.7811C16.9391 13.7778 17.0024 13.7746 17.0591 13.7746C17.1295 13.7746 17.1668 13.7797 17.1849 13.7837C17.2174 13.8394 17.2555 13.9868 17.2789 14.0781C17.3328 14.2868 17.3941 14.5234 17.5443 14.7283C17.6929 14.931 17.898 15.0606 18.0791 15.175C18.1632 15.2284 18.3009 15.3153 18.3405 15.3645C18.3391 15.4293 18.281 15.5878 18.2455 15.6848C18.1699 15.8905 18.0844 16.1238 18.0844 16.3823C18.0844 16.6407 18.1699 16.874 18.2453 17.0799C18.281 17.1769 18.3391 17.3354 18.3405 17.4003C18.3009 17.4495 18.1632 17.5364 18.0791 17.5897C17.898 17.704 17.6929 17.8337 17.5443 18.0364C17.3941 18.2413 17.3328 18.478 17.2789 18.6867C17.2555 18.7777 17.2172 18.9253 17.1849 18.981C17.1668 18.9848 17.1295 18.9902 17.0591 18.9902C17.0024 18.9902 16.9391 18.987 16.872 18.9836C16.7953 18.9799 16.7157 18.9759 16.633 18.9759C16.4499 18.9759 16.3025 18.9965 16.1686 19.0411C15.9348 19.1189 15.7475 19.2697 15.5825 19.4024C15.4926 19.475 15.3427 19.5954 15.283 19.6061C15.2232 19.5954 15.0735 19.475 14.9836 19.4024C14.8184 19.2697 14.6313 19.1189 14.3975 19.0411C14.2636 18.9965 14.116 18.9759 13.9331 18.9759C13.8504 18.9759 13.7708 18.9799 13.6939 18.9836C13.627 18.987 13.5637 18.9902 13.507 18.9902C13.4366 18.9902 13.3993 18.9848 13.3812 18.981C13.3487 18.9253 13.3106 18.7779 13.287 18.6867C13.2333 18.478 13.172 18.2413 13.0218 18.0364C12.8732 17.8337 12.6681 17.704 12.487 17.5897C12.4029 17.5366 12.2652 17.4495 12.2256 17.4003C12.227 17.3356 12.2851 17.1769 12.3206 17.0799C12.3962 16.8742 12.4817 16.6409 12.4817 16.3825C12.4817 16.1238 12.396 15.8905 12.3206 15.6848ZM16.9792 24.5741L15.5529 23.6793C15.3879 23.5759 15.178 23.5759 15.013 23.6793L13.5867 24.5741V20.0042C13.6407 20.0026 13.6937 20.0006 13.745 19.9981C13.8123 19.9945 13.8758 19.9913 13.9331 19.9913C14.0231 19.9913 14.0616 19.9996 14.0765 20.0046C14.137 20.0248 14.2532 20.1185 14.3467 20.1936C14.5837 20.3845 14.8787 20.6219 15.283 20.6219C15.6872 20.6219 15.9822 20.3845 16.2192 20.1936C16.3127 20.1185 16.4289 20.0248 16.4892 20.0048C16.5043 19.9998 16.5428 19.9915 16.6328 19.9915C16.6901 19.9915 16.7536 19.9947 16.8209 19.9981C16.8722 20.0006 16.9252 20.0028 16.979 20.0042L16.9792 24.5741ZM17.9948 21.7355V19.595C18.1457 19.3899 18.2088 19.1471 18.2622 18.9408C18.2901 18.8325 18.3284 18.6843 18.3633 18.6369C18.3981 18.5893 18.5272 18.5077 18.6214 18.4482C18.8714 18.2903 19.1824 18.0938 19.306 17.722C19.4282 17.3553 19.301 17.0087 19.1989 16.7302C19.1524 16.6038 19.0999 16.4604 19.0999 16.3823C19.0999 16.3041 19.1524 16.1609 19.1989 16.0345C19.301 15.756 19.4282 15.4093 19.306 15.0425C19.1824 14.671 18.8714 14.4744 18.6214 14.3165C18.5272 14.257 18.3981 14.1753 18.3633 14.1281C18.3284 14.0805 18.2901 13.9323 18.2622 13.824C18.1892 13.5413 18.0983 13.1894 17.7873 12.9613C17.5397 12.78 17.2531 12.759 17.0589 12.759C16.9768 12.759 16.8974 12.7629 16.8209 12.7669C16.7536 12.7703 16.6901 12.7734 16.633 12.7734C16.5428 12.7734 16.5043 12.7651 16.4894 12.7602C16.4291 12.7401 16.3129 12.6465 16.2194 12.5711C15.9822 12.3805 15.6872 12.143 15.283 12.143C14.8789 12.143 14.5837 12.3805 14.3467 12.5711C14.2532 12.6463 14.137 12.7401 14.0767 12.7602C14.0618 12.7651 14.0231 12.7734 13.9331 12.7734C13.876 12.7734 13.8123 12.7703 13.745 12.7667C13.6685 12.7629 13.5893 12.759 13.507 12.759C13.313 12.759 13.0264 12.78 12.779 12.9613C12.4678 13.1894 12.3767 13.5413 12.3037 13.824C12.2758 13.9323 12.2375 14.0805 12.2028 14.1279C12.1678 14.1753 12.0387 14.257 11.9445 14.3165C11.6945 14.4744 11.3837 14.671 11.2599 15.0425C11.1377 15.4095 11.2649 15.756 11.3671 16.0345C11.4135 16.1609 11.466 16.3041 11.466 16.3823C11.466 16.4604 11.4135 16.6038 11.3671 16.7302C11.2649 17.0087 11.1377 17.3553 11.2599 17.7222C11.3837 18.0938 11.6947 18.2903 11.9445 18.4482C12.0389 18.5077 12.1678 18.5895 12.2028 18.6369C12.2375 18.6843 12.2758 18.8325 12.3037 18.9408C12.3571 19.1471 12.4204 19.3901 12.5713 19.595V21.7355H5.43359V1.01562H15.9233V5.10311C15.9233 5.3836 16.1506 5.61092 16.4311 5.61092H20.5184V21.7355H17.9948Z" fill="black"/>
<path fill-rule="evenodd" clip-rule="evenodd" d="M7.4071 5.61093H13.9496C14.2298 5.61093 14.4574 5.38361 14.4574 5.10312C14.4574 4.82263 14.2298 4.59531 13.9496 4.59531H7.4071C7.12662 4.59531 6.89929 4.82263 6.89929 5.10312C6.89929 5.38361 7.12682 5.61093 7.4071 5.61093Z" fill="black"/>
<path fill-rule="evenodd" clip-rule="evenodd" d="M18.6016 7.15857H7.4071C7.12662 7.15857 6.89929 7.38589 6.89929 7.66638C6.89929 7.94687 7.12662 8.17419 7.4071 8.17419H18.6016C18.8821 8.17419 19.1094 7.94687 19.1094 7.66638C19.1094 7.38589 18.8821 7.15857 18.6016 7.15857Z" fill="black"/>
<path fill-rule="evenodd" clip-rule="evenodd" d="M16.5703 9.72183H7.4071C7.12662 9.72183 6.89929 9.94936 6.89929 10.2296C6.89929 10.5101 7.12662 10.7375 7.4071 10.7375H16.5703C16.8508 10.7375 17.0782 10.5101 17.0782 10.2296C17.0782 9.94936 16.8508 9.72183 16.5703 9.72183Z" fill="black"/>
<path fill-rule="evenodd" clip-rule="evenodd" d="M18.6016 9.72183C18.3219 9.72183 18.0938 9.94995 18.0938 10.2296C18.0938 10.5093 18.3219 10.7375 18.6016 10.7375C18.8815 10.7375 19.1094 10.5093 19.1094 10.2296C19.1094 9.94995 18.8815 9.72183 18.6016 9.72183Z" fill="black"/>
</svg>
