<svg width="28" height="18" viewBox="0 0 28 18" fill="none" xmlns="http://www.w3.org/2000/svg">
<path d="M26.1463 7.88858H1.10063C0.492786 7.88858 0 8.35416 0 8.92856C0 9.50296 0.492786 9.96855 1.10063 9.96855H26.1463C26.7542 9.96855 27.2469 9.50296 27.2469 8.92856C27.2469 8.35422 26.7542 7.88858 26.1463 7.88858Z" fill="black"/>
<path d="M26.1463 0H1.10063C0.492786 0 0 0.465634 0 1.03998C0 1.61433 0.492786 2.07997 1.10063 2.07997H26.1463C26.7542 2.07997 27.2469 1.61433 27.2469 1.03998C27.2469 0.465634 26.7542 0 26.1463 0Z" fill="black"/>
<path d="M26.1463 15.7772H1.10063C0.492786 15.7772 0 16.2427 0 16.8171C0 17.3915 0.492786 17.8571 1.10063 17.8571H26.1463C26.7542 17.8571 27.2469 17.3915 27.2469 16.8171C27.2469 16.2427 26.7542 15.7772 26.1463 15.7772Z" fill="black"/>
</svg>
