<svg width="22" height="22" viewBox="0 0 22 22" fill="none" xmlns="http://www.w3.org/2000/svg">
<path d="M17.8124 15.2593C17.7252 15.2593 17.6379 15.2274 17.5698 15.1628L13.4879 11.3334C13.3453 11.2001 13.3382 10.9752 13.4723 10.8326C13.6064 10.6886 13.8298 10.6822 13.9738 10.817L18.0557 14.6464C18.1983 14.7797 18.2054 15.0046 18.0713 15.1472C18.0011 15.2217 17.9075 15.2593 17.8124 15.2593Z" fill="black"/>
<path d="M4.18693 15.2596C4.09258 15.2596 3.99823 15.222 3.928 15.1475C3.79392 15.0049 3.80102 14.78 3.94361 14.6466L8.02693 10.8173C8.17023 10.6839 8.39511 10.6896 8.52848 10.8329C8.66255 10.9755 8.65546 11.2004 8.51287 11.3337L4.42955 15.1631C4.36144 15.2276 4.27419 15.2596 4.18693 15.2596Z" fill="black"/>
<path d="M20.2265 18.8198H1.77351C0.79595 18.8198 0 18.0245 0 17.0463V4.95307C0 3.97481 0.79595 3.17957 1.77351 3.17957H20.2265C21.2041 3.17957 22 3.97481 22 4.95307V17.0463C22 18.0245 21.2041 18.8198 20.2265 18.8198ZM1.77351 3.88897C1.18683 3.88897 0.709403 4.3664 0.709403 4.95307V17.0463C0.709403 17.6329 1.18683 18.1104 1.77351 18.1104H20.2265C20.8132 18.1104 21.2906 17.6329 21.2906 17.0463V4.95307C21.2906 4.3664 20.8132 3.88897 20.2265 3.88897H1.77351Z" fill="black"/>
<path d="M11.0001 12.782C10.5283 12.782 10.0565 12.6252 9.69759 12.3124L0.588858 4.36634C0.441302 4.23794 0.425695 4.01376 0.554097 3.8655C0.683918 3.71794 0.90738 3.70447 1.05494 3.83145L10.1637 11.7768C10.617 12.1719 11.3831 12.1719 11.8357 11.7768L20.9331 3.84422C21.08 3.71582 21.3034 3.73 21.434 3.87827C21.5624 4.02653 21.5475 4.25 21.3999 4.37911L12.3025 12.3116C11.9428 12.6252 11.4718 12.782 11.0001 12.782Z" fill="black"/>
</svg>
