<svg width="26" height="26" viewBox="0 0 26 26" fill="none" xmlns="http://www.w3.org/2000/svg">
<g clip-path="url(#clip0)">
<path d="M23.7646 23.1443L20.3225 14.8344C20.2348 14.6227 19.9921 14.5221 19.7804 14.6098C19.5687 14.6976 19.4681 14.9403 19.5559 15.1519L22.6676 22.6643L19.8292 21.8419C19.6429 21.7878 19.4439 21.8703 19.3504 22.0403L17.9249 24.6288L14.586 16.5679C18.4397 15.8248 21.3597 12.4271 21.3597 8.35977C21.3597 3.7502 17.6096 0 13 0C8.39041 0 4.64021 3.7502 4.64021 8.35977C4.64021 10.2269 5.25558 11.9528 6.29403 13.3459L2.23538 23.1443C2.17436 23.2917 2.20318 23.461 2.30956 23.5798C2.41588 23.6986 2.58101 23.746 2.73419 23.7016L6.08282 22.7312L7.76453 25.7853C7.83777 25.9182 7.97734 26 8.12786 26C8.1355 26 8.14319 25.9998 8.15088 25.9994C8.31014 25.9905 8.45021 25.8912 8.51128 25.7439L11.7273 17.9797C11.815 17.768 11.7145 17.5253 11.5028 17.4376C11.2911 17.3499 11.0484 17.4504 10.9607 17.6621L8.07498 24.6288L6.64957 22.0403C6.55597 21.8703 6.35687 21.7878 6.17067 21.8419L3.33236 22.6643L6.89474 14.0639C8.42144 15.6969 10.5934 16.7195 13 16.7195C13.2484 16.7195 13.4942 16.7079 13.7371 16.6866L17.4887 25.7439C17.5498 25.8912 17.6899 25.9905 17.8491 25.9993C17.8568 25.9998 17.8645 26 17.8722 26C18.0227 26 18.1623 25.9182 18.2354 25.7853L19.9172 22.7312L23.2658 23.7016C23.4191 23.746 23.5841 23.6986 23.6905 23.5798C23.7968 23.461 23.8256 23.2917 23.7646 23.1443ZM5.47 8.35977C5.47 4.20774 8.84795 0.829787 13 0.829787C17.152 0.829787 20.5299 4.20774 20.5299 8.35977C20.5299 12.5118 17.152 15.8897 13 15.8897C8.84795 15.8897 5.47 12.5118 5.47 8.35977Z" fill="black"/>
<path d="M17.7939 6.8021C17.7461 6.65506 17.6204 6.54675 17.4679 6.52114L14.6761 6.05264L13.3679 3.54231C13.2964 3.40517 13.1546 3.31915 13 3.31915C12.8453 3.31915 12.7035 3.40517 12.632 3.54231L11.3237 6.05264L8.532 6.52114C8.37948 6.54669 8.25385 6.65501 8.20606 6.8021C8.15826 6.9492 8.19621 7.11062 8.30458 7.22098L10.2878 9.24096L9.87066 12.0409C9.84787 12.1938 9.91204 12.3467 10.0372 12.4377C10.1622 12.5285 10.3275 12.5423 10.466 12.4734L13 11.2115L15.5339 12.4734C15.5925 12.5026 15.6558 12.517 15.7188 12.517C15.805 12.517 15.8905 12.4902 15.9627 12.4377C16.0879 12.3468 16.152 12.1939 16.1293 12.0409L15.7122 9.24101L17.6954 7.22098C17.8037 7.11062 17.8417 6.9492 17.7939 6.8021ZM14.9753 8.80709C14.8841 8.89997 14.8418 9.03019 14.861 9.15886L15.1913 11.3757L13.1849 10.3766C13.1266 10.3476 13.0634 10.3331 13 10.3331C12.9366 10.3331 12.8732 10.3476 12.815 10.3766L10.8087 11.3757L11.139 9.15886C11.1582 9.03019 11.1158 8.89991 11.0247 8.80709L9.45444 7.2077L11.6648 6.83673C11.7932 6.81521 11.904 6.73472 11.9641 6.61933L13 4.63177L14.0358 6.61938C14.096 6.73478 14.2067 6.81527 14.3351 6.83679L16.5455 7.20776L14.9753 8.80709Z" fill="black"/>
<path d="M19.2849 8.77827C19.0577 8.7479 18.8492 8.90788 18.8191 9.13507C18.4343 12.0397 15.9326 14.2302 13 14.2302C9.76306 14.2302 7.12959 11.5968 7.12959 8.35978C7.12959 5.12278 9.76306 2.48936 13 2.48936C15.9326 2.48936 18.4343 4.67978 18.8191 7.58448C18.8492 7.81167 19.0581 7.97177 19.2849 7.94129C19.512 7.91119 19.6718 7.70264 19.6417 7.4755C19.2025 4.15989 16.3472 1.65958 13 1.65958C9.30552 1.65958 6.2998 4.66523 6.2998 8.35978C6.2998 12.0543 9.30552 15.0599 13 15.0599C16.3472 15.0599 19.2025 12.5596 19.6417 9.244C19.6718 9.01691 19.5121 8.80836 19.2849 8.77827Z" fill="black"/>
</g>
<defs>
<clipPath id="clip0">
<rect width="26" height="26" fill="white"/>
</clipPath>
</defs>
</svg>
