<svg width="38" height="38" viewBox="0 0 38 38" fill="none" xmlns="http://www.w3.org/2000/svg">
<path d="M35.3399 17.1714L34.3558 13.2353C34.6248 13.1781 34.8267 12.9394 34.8267 12.6535V12.0188C34.8267 10.6409 33.7056 9.51987 32.3278 9.51987H27.8455V8.2108C27.8455 7.53273 27.2939 6.98114 26.6159 6.98114H3.76823C3.09017 6.98114 2.53858 7.53273 2.53858 8.2108V19C2.53858 19.3285 2.80495 19.595 3.13359 19.595C3.46216 19.595 3.7286 19.3286 3.7286 19V8.2108C3.7286 8.1889 3.74634 8.17116 3.76823 8.17116H26.6158C26.6377 8.17116 26.6554 8.1889 26.6554 8.2108V19.0001C26.6554 19.3287 26.9218 19.5951 27.2505 19.5951C27.579 19.5951 27.8455 19.3288 27.8455 19.0001V18.3256H34.8643C34.8649 18.3256 34.8653 18.3258 34.8658 18.3258C34.8664 18.3258 34.8669 18.3257 34.8675 18.3257C35.7311 18.3263 36.4645 18.8932 36.7164 19.6743H34.8663C34.5377 19.6743 34.2713 19.9407 34.2713 20.2693V21.5386C34.2713 22.5666 35.1075 23.4029 36.1356 23.4029H36.8099V26.0208H35.2541C34.7431 24.5452 33.3402 23.4822 31.693 23.4822C30.0457 23.4822 28.6428 24.5452 28.1318 26.0208H27.8453V21.5386C27.8453 21.21 27.5789 20.9435 27.2503 20.9435C26.9217 20.9435 26.6553 21.2099 26.6553 21.5386V26.0207H14.3106C13.7996 24.545 12.3968 23.482 10.7495 23.482C9.10219 23.482 7.6993 24.545 7.18831 26.0207H3.76823C3.74634 26.0207 3.7286 26.003 3.7286 25.9811V24.6721H6.30689C6.63545 24.6721 6.9019 24.4057 6.9019 24.0771C6.9019 23.7484 6.63553 23.482 6.30689 23.482H0.595012C0.266445 23.482 0 23.7484 0 24.0771C0 24.4057 0.266371 24.6721 0.595012 24.6721H2.53865V25.9811C2.53865 26.6591 3.09025 27.2107 3.76831 27.2107H6.98228C6.98213 27.2239 6.98124 27.2371 6.98124 27.2504C6.98124 29.3282 8.67172 31.0186 10.7495 31.0186C12.8272 31.0186 14.5177 29.3282 14.5177 27.2504C14.5177 27.237 14.5168 27.2239 14.5167 27.2107H27.9258C27.9256 27.2239 27.9247 27.2371 27.9247 27.2504C27.9247 29.3282 29.6152 31.0186 31.693 31.0186C33.7707 31.0186 35.4612 29.3282 35.4612 27.2504C35.4612 27.237 35.4603 27.2239 35.4602 27.2107H37.4049C37.7335 27.2107 37.9999 26.9443 37.9999 26.6157V20.2692C38 18.7023 36.8439 17.4004 35.3399 17.1714ZM27.8455 10.7098H32.3278C33.0495 10.7098 33.6368 11.297 33.6368 12.0188V12.0584H27.8455V10.7098ZM27.8455 17.1357V13.2484H33.1325L34.1043 17.1357H27.8455ZM10.7495 29.8288C9.32781 29.8288 8.17119 28.6722 8.17119 27.2505C8.17119 25.8288 9.32781 24.6722 10.7495 24.6722C12.1711 24.6722 13.3278 25.8288 13.3278 27.2505C13.3278 28.6722 12.1711 29.8288 10.7495 29.8288ZM31.6931 29.8288C30.2715 29.8288 29.1148 28.6722 29.1148 27.2505C29.1148 25.8288 30.2715 24.6722 31.6931 24.6722C33.1148 24.6722 34.2714 25.8288 34.2714 27.2505C34.2714 28.6722 33.1148 29.8288 31.6931 29.8288ZM36.8101 22.2129H36.1357C35.7639 22.2129 35.4613 21.9104 35.4613 21.5386V20.8642H36.81V22.2129H36.8101Z" fill="black"/>
<path d="M10.7492 26.0209C10.0711 26.0209 9.51953 26.5725 9.51953 27.2506C9.51953 27.9287 10.0711 28.4802 10.7492 28.4802C11.4273 28.4802 11.9788 27.9287 11.9788 27.2506C11.9788 26.5725 11.4273 26.0209 10.7492 26.0209Z" fill="black"/>
<path d="M31.6935 26.0209C31.0155 26.0209 30.4639 26.5725 30.4639 27.2506C30.4639 27.9287 31.0155 28.4802 31.6935 28.4802C32.3716 28.4802 32.9232 27.9287 32.9232 27.2506C32.9232 26.5725 32.3716 26.0209 31.6935 26.0209Z" fill="black"/>
<path d="M24.7116 23.4822H15.8265C15.4979 23.4822 15.2314 23.7486 15.2314 24.0773C15.2314 24.4059 15.4978 24.6723 15.8265 24.6723H24.7116C25.0402 24.6723 25.3066 24.4059 25.3066 24.0773C25.3066 23.7486 25.0403 23.4822 24.7116 23.4822Z" fill="black"/>
<path d="M9.48042 20.9436H1.86454C1.53598 20.9436 1.26953 21.21 1.26953 21.5386C1.26953 21.8673 1.5359 22.1337 1.86454 22.1337H9.48042C9.80898 22.1337 10.0754 21.8673 10.0754 21.5386C10.0754 21.21 9.80898 20.9436 9.48042 20.9436Z" fill="black"/>
<path d="M20.69 12.8673C20.4576 12.635 20.0808 12.635 19.8485 12.8674L14.5573 18.1585L11.8048 15.406C11.5724 15.1736 11.1957 15.1736 10.9633 15.406C10.731 15.6384 10.731 16.015 10.9633 16.2474L14.1366 19.4207C14.2528 19.5369 14.4051 19.595 14.5573 19.595C14.7095 19.595 14.8619 19.5369 14.978 19.4207L20.6899 13.7088C20.9223 13.4764 20.9223 13.0997 20.69 12.8673Z" fill="black"/>
</svg>
