<svg width="22" height="21" viewBox="0 0 22 21" fill="none" xmlns="http://www.w3.org/2000/svg">
<g clip-path="url(#clip0)">
<path d="M4.48336 13.9594C6.65327 16.4353 9.26537 18.3848 12.2467 19.7642C13.3818 20.2777 14.8998 20.8869 16.5911 20.9913C16.696 20.9956 16.7962 21 16.9011 21C18.0362 21 18.9479 20.6258 19.691 19.8556C19.6955 19.8512 19.7047 19.8425 19.7092 19.8338C19.9736 19.5292 20.2745 19.2551 20.589 18.9635C20.8033 18.7677 21.0221 18.5632 21.2318 18.3543C22.2028 17.3883 22.2028 16.1612 21.2227 15.2257L18.4829 12.6104C18.018 12.1492 17.4618 11.9055 16.8783 11.9055C16.2948 11.9055 15.7341 12.1492 15.2554 12.6061L13.6234 14.1639C13.473 14.0812 13.318 14.0073 13.1721 13.9376C12.9898 13.8506 12.8211 13.7679 12.6707 13.6765C11.1846 12.7758 9.8352 11.6009 8.5451 10.091C7.89322 9.30336 7.45559 8.64194 7.15016 7.96747C7.57867 7.5976 7.97983 7.21032 8.36732 6.83174C8.50408 6.69685 8.6454 6.56196 8.78671 6.42706C9.27905 5.95711 9.54345 5.41318 9.54345 4.86055C9.54345 4.30792 9.2836 3.76399 8.78671 3.29403L7.42824 1.99731C7.26869 1.84501 7.11825 1.69706 6.96326 1.54476C6.66239 1.24886 6.34784 0.94426 6.03785 0.67012C5.56831 0.230626 5.01672 0 4.43321 0C3.85426 0 3.29811 0.230626 2.81034 0.674472L1.1054 2.30191C0.485429 2.8937 0.134414 3.61169 0.0614754 4.44281C-0.0251387 5.4828 0.175441 6.58806 0.695126 7.92395C1.49289 9.99088 2.69637 11.9099 4.48336 13.9594ZM1.17378 4.53419C1.22849 3.95545 1.46098 3.47244 1.89861 3.0547L3.59442 1.43597C3.85882 1.19229 4.15058 1.0661 4.43321 1.0661C4.71129 1.0661 4.99392 1.19229 5.25377 1.44467C5.5592 1.71446 5.84639 1.99731 6.15638 2.29755C6.31137 2.44985 6.47092 2.60215 6.63048 2.75881L7.98895 4.05553C8.27159 4.32532 8.41746 4.59946 8.41746 4.86925C8.41746 5.13904 8.27159 5.41318 7.98895 5.68297C7.84763 5.81786 7.70632 5.95711 7.565 6.092C7.14104 6.50104 6.74444 6.88831 6.30681 7.25818C6.2977 7.26689 6.29314 7.27124 6.28402 7.27994C5.90565 7.64111 5.96491 7.98487 6.05609 8.24596C6.06065 8.25901 6.06521 8.26772 6.06976 8.28077C6.42078 9.08578 6.90855 9.85164 7.66985 10.7654C9.03744 12.3755 10.478 13.6243 12.0644 14.586C12.2604 14.7078 12.4701 14.8036 12.6661 14.8993C12.8485 14.9863 13.0171 15.069 13.1676 15.1604C13.1858 15.1691 13.1995 15.1778 13.2177 15.1865C13.3681 15.2605 13.514 15.2953 13.6599 15.2953C14.0246 15.2953 14.2616 15.0734 14.3391 14.9994L16.0441 13.3719C16.3085 13.1196 16.5957 12.9847 16.8783 12.9847C17.2248 12.9847 17.5074 13.1892 17.6852 13.3719L20.434 15.9915C20.9811 16.5137 20.9765 17.0794 20.4204 17.632C20.2289 17.8278 20.0283 18.0149 19.8141 18.2107C19.495 18.5066 19.1622 18.8112 18.8613 19.155C18.3371 19.6946 17.7125 19.947 16.9057 19.947C16.8282 19.947 16.7461 19.9426 16.6686 19.9383C15.1734 19.8469 13.783 19.2899 12.7391 18.8156C9.90358 17.5058 7.41456 15.6477 5.3495 13.2893C3.64913 11.3355 2.50491 9.51658 1.74817 7.56714C1.27863 6.37049 1.10085 5.40883 1.17378 4.53419Z" fill="black"/>
</g>
<defs>
<clipPath id="clip0">
<rect width="22" height="21" fill="white"/>
</clipPath>
</defs>
</svg>
