<svg width="21" height="21" viewBox="0 0 21 21" fill="none" xmlns="http://www.w3.org/2000/svg">
<g clip-path="url(#clip0)">
<path d="M10.5 0C4.70107 0 0 4.70107 0 10.5C0 16.2989 4.70107 21 10.5 21C10.8163 21 11.1315 20.9858 11.4451 20.9576C11.7366 20.9315 12.0256 20.8915 12.3124 20.8414L12.4226 20.8219C17.7541 19.827 21.4508 14.9353 20.9522 9.53459C20.4535 4.13386 15.9236 0.00170898 10.5 0V0ZM9.65645 20.2629H9.63167C9.35942 20.2388 9.08923 20.2024 8.82144 20.1558C8.80606 20.153 8.79067 20.1513 8.77564 20.1484C8.51382 20.1016 8.25474 20.0435 7.99822 19.9756L7.93618 19.9597C7.68599 19.8919 7.43853 19.8131 7.19465 19.7256C7.16936 19.7166 7.1439 19.7085 7.1186 19.6991C6.87952 19.6113 6.6447 19.5128 6.41348 19.4064C6.38477 19.3936 6.35606 19.3813 6.32734 19.3676C6.10056 19.2626 5.87822 19.1444 5.66016 19.02C5.6294 19.0025 5.59829 18.9851 5.56753 18.9678C5.35288 18.8426 5.14319 18.7083 4.93743 18.5664C4.90632 18.5447 4.87488 18.5237 4.84395 18.502C4.64177 18.3586 4.44473 18.2063 4.25281 18.047L4.2 18.0009V15.05C4.20256 12.9247 5.92471 11.2026 8.05 11.2H12.95C15.0753 11.2026 16.7974 12.9247 16.8 15.05V18.0012L16.7535 18.04C16.5578 18.2034 16.357 18.3579 16.1508 18.5039C16.1234 18.523 16.0957 18.5413 16.0686 18.5601C15.8604 18.7047 15.6471 18.8407 15.4287 18.9685C15.4014 18.9844 15.3733 18.9995 15.3462 19.0152C15.1249 19.1411 14.8998 19.2601 14.6703 19.3672C14.6439 19.3795 14.6175 19.391 14.5908 19.4023C14.3577 19.5098 14.1208 19.6087 13.88 19.6972C13.8561 19.7061 13.832 19.7138 13.81 19.7222C13.5649 19.81 13.3164 19.8895 13.0648 19.9577L13.0045 19.9727C12.7477 20.0406 12.4884 20.099 12.2262 20.146C12.2112 20.1488 12.1962 20.1506 12.1811 20.153C11.913 20.1999 11.6425 20.2363 11.37 20.2605H11.3453C11.0653 20.2846 10.7852 20.2976 10.5017 20.2976C10.2182 20.2976 9.93587 20.287 9.65645 20.2629ZM17.5 17.3523V15.05C17.4971 12.5383 15.4617 10.5029 12.95 10.5H8.05C5.53831 10.5029 3.50291 12.5383 3.5 15.05V17.352C-0.269678 13.5046 -0.227637 7.33599 3.59399 3.54016C7.41563 -0.255493 13.5844 -0.255493 17.406 3.54016C21.2276 7.33599 21.2697 13.5046 17.5 17.352V17.3523Z" fill="black"/>
<path d="M10.5001 2.79999C8.56703 2.79999 7.00006 4.36696 7.00006 6.29999C7.00006 8.23302 8.56703 9.79999 10.5001 9.79999C12.4331 9.79999 14.0001 8.23302 14.0001 6.29999C13.998 4.36781 12.4322 2.80204 10.5001 2.79999ZM10.5001 9.09999C8.9536 9.09999 7.70006 7.84645 7.70006 6.29999C7.70006 4.75353 8.9536 3.49999 10.5001 3.49999C12.0465 3.49999 13.3001 4.75353 13.3001 6.29999C13.2984 7.84559 12.0457 9.09828 10.5001 9.09999Z" fill="black"/>
</g>
<defs>
<clipPath id="clip0">
<rect width="21" height="21" fill="white"/>
</clipPath>
</defs>
</svg>
